# xmcd
#
# Track frame offsets: 
#        150
#        18435
#        35447
#        53737
#        76485
#        98970
#        122235
#        146447
#        166515
#        189332
#        208477
#        226177
#
# Disc length: 3318 seconds
#
# Revision: 5
# Processed by: cddbd v1.5.2PL0 Copyright (c) Steve Scherf et al.
# Submitted via: ExactAudioCopyFreeDBPlugin 1.0
#
DISCID=990cf40c
DTITLE=Coco Montoya - Suspicion
DYEAR=2000
DGENRE=Blues
TTITLE0=Enough is Enough
TTITLE1=Casting My Spell
TTITLE2=I Need Your Love in My Life
TTITLE3=Fool
TTITLE4=Don't Take it Personally
TTITLE5=Get Your Business Straight
TTITLE6=Trading One Fool for Another
TTITLE7=Beyond the Blues
TTITLE8=Good Days, Bad Days
TTITLE9=What I Know Now
TTITLE10=You Didn't Think About That
TTITLE11=Nothing But Love
EXTD=
EXTT0=
EXTT1=
EXTT2=
EXTT3=
EXTT4=
EXTT5=
EXTT6=
EXTT7=
EXTT8=
EXTT9=
EXTT10=
EXTT11=
PLAYORDER=
